<svg width="133" height="31" viewBox="0 0 133 31" fill="none" xmlns="http://www.w3.org/2000/svg">
<path d="M22.616 13.544C22.616 15.2507 22.4133 16.808 22.008 18.216C21.6027 19.624 20.984 20.8507 20.152 21.896C19.32 22.92 18.264 23.72 16.984 24.296L22.488 30.44H16.28L12.088 25.32C12.024 25.32 11.96 25.32 11.896 25.32C11.8533 25.32 11.8 25.32 11.736 25.32C9.88 25.32 8.25867 25.0427 6.872 24.488C5.50667 23.912 4.376 23.112 3.48 22.088C2.60533 21.0427 1.944 19.7947 1.496 18.344C1.06933 16.8933 0.856 15.2827 0.856 13.512C0.856 11.144 1.24 9.08533 2.008 7.336C2.79733 5.58667 3.992 4.232 5.592 3.272C7.21333 2.29067 9.272 1.8 11.768 1.8C14.2427 1.8 16.28 2.29067 17.88 3.272C19.48 4.232 20.664 5.59733 21.432 7.368C22.2213 9.11733 22.616 11.176 22.616 13.544ZM5.944 13.544C5.944 15.144 6.14667 16.52 6.552 17.672C6.95733 18.824 7.58667 19.7093 8.44 20.328C9.29333 20.9467 10.392 21.256 11.736 21.256C13.1227 21.256 14.232 20.9467 15.064 20.328C15.9173 19.7093 16.536 18.824 16.92 17.672C17.3253 16.52 17.528 15.144 17.528 13.544C17.528 11.1333 17.08 9.24533 16.184 7.88C15.288 6.51467 13.816 5.832 11.768 5.832C10.4027 5.832 9.29333 6.14133 8.44 6.76C7.58667 7.37867 6.95733 8.264 6.552 9.416C6.14667 10.568 5.944 11.944 5.944 13.544ZM42.9968 7.528V25H39.3488L38.7088 22.76H38.4528C38.0901 23.3573 37.6208 23.848 37.0448 24.232C36.4901 24.5947 35.8714 24.8613 35.1888 25.032C34.5061 25.224 33.8021 25.32 33.0768 25.32C31.8394 25.32 30.7514 25.096 29.8128 24.648C28.8741 24.2 28.1488 23.5067 27.6368 22.568C27.1248 21.6293 26.8688 20.4133 26.8688 18.92V7.528H31.6368V17.736C31.6368 18.9733 31.8608 19.912 32.3088 20.552C32.7568 21.192 33.4714 21.512 34.4528 21.512C35.4341 21.512 36.1914 21.288 36.7248 20.84C37.2794 20.392 37.6634 19.7413 37.8768 18.888C38.1114 18.0347 38.2288 16.9893 38.2288 15.752V7.528H42.9968ZM52.764 7.528V25H47.996V7.528H52.764ZM50.396 0.679998C51.1 0.679998 51.708 0.850665 52.22 1.192C52.732 1.512 52.988 2.12 52.988 3.016C52.988 3.89067 52.732 4.49867 52.22 4.84C51.708 5.18133 51.1 5.352 50.396 5.352C49.6707 5.352 49.052 5.18133 48.54 4.84C48.0493 4.49867 47.804 3.89067 47.804 3.016C47.804 2.12 48.0493 1.512 48.54 1.192C49.052 0.850665 49.6707 0.679998 50.396 0.679998ZM64.85 25.32C63.122 25.32 61.65 25.0107 60.434 24.392C59.218 23.752 58.29 22.7707 57.65 21.448C57.01 20.1253 56.69 18.4293 56.69 16.36C56.69 14.2267 57.0527 12.488 57.778 11.144C58.5033 9.8 59.506 8.808 60.786 8.168C62.0873 7.528 63.5807 7.208 65.266 7.208C66.4607 7.208 67.4953 7.32533 68.37 7.56C69.266 7.79467 70.0447 8.072 70.706 8.392L69.298 12.072C68.5513 11.7733 67.8473 11.528 67.186 11.336C66.546 11.144 65.906 11.048 65.266 11.048C64.434 11.048 63.7407 11.2507 63.186 11.656C62.6313 12.04 62.2153 12.6267 61.938 13.416C61.682 14.184 61.554 15.1547 61.554 16.328C61.554 17.48 61.6927 18.44 61.97 19.208C62.2687 19.9547 62.6953 20.52 63.25 20.904C63.8047 21.2667 64.4767 21.448 65.266 21.448C66.2687 21.448 67.154 21.32 67.922 21.064C68.69 20.7867 69.4367 20.4133 70.162 19.944V24.008C69.4367 24.4773 68.6687 24.808 67.858 25C67.0687 25.2133 66.066 25.32 64.85 25.32ZM78.9515 11.56C78.9515 12.2213 78.9195 12.8827 78.8555 13.544C78.8128 14.184 78.7595 14.8347 78.6955 15.496H78.7595C78.9728 15.1973 79.1862 14.8987 79.3995 14.6C79.6342 14.3013 79.8688 14.0027 80.1035 13.704C80.3382 13.4053 80.5835 13.1173 80.8395 12.84L85.7355 7.528H91.1115L84.1675 15.112L91.5275 25H86.0235L80.9995 17.928L78.9515 19.56V25H74.1835V0.679998H78.9515V11.56Z" fill="white"/>
<path d="M104.107 5.864C103.19 5.864 102.369 6.04533 101.643 6.408C100.939 6.77067 100.342 7.29333 99.8513 7.976C99.3606 8.63733 98.9873 9.448 98.7313 10.408C98.4966 11.368 98.3793 12.4453 98.3793 13.64C98.3793 15.2613 98.5713 16.648 98.9553 17.8C99.3606 18.9307 99.9899 19.7947 100.843 20.392C101.697 20.9893 102.785 21.288 104.107 21.288C105.046 21.288 105.974 21.1813 106.891 20.968C107.83 20.7547 108.843 20.456 109.931 20.072V24.136C108.929 24.5413 107.937 24.84 106.955 25.032C105.974 25.224 104.875 25.32 103.659 25.32C101.313 25.32 99.3713 24.84 97.8353 23.88C96.3206 22.8987 95.2006 21.5333 94.4753 19.784C93.7499 18.0133 93.3873 15.9547 93.3873 13.608C93.3873 11.88 93.6219 10.3013 94.0913 8.872C94.5606 7.42133 95.2433 6.17333 96.1393 5.128C97.0566 4.08267 98.1766 3.272 99.4993 2.696C100.843 2.12 102.379 1.832 104.107 1.832C105.238 1.832 106.369 1.98133 107.499 2.28C108.651 2.55733 109.75 2.94133 110.795 3.432L109.227 7.368C108.374 6.96267 107.51 6.61067 106.635 6.312C105.782 6.01333 104.939 5.864 104.107 5.864ZM132.706 2.152L124.93 25H119.65L111.906 2.152H116.802L121.09 15.752C121.176 15.9867 121.293 16.424 121.442 17.064C121.613 17.6827 121.784 18.344 121.954 19.048C122.125 19.7307 122.242 20.3067 122.306 20.776C122.37 20.3067 122.477 19.7307 122.626 19.048C122.797 18.344 122.968 17.6827 123.138 17.064C123.309 16.424 123.426 15.9867 123.49 15.752L127.81 2.152H132.706Z" fill="#4294FF"/>
</svg>
